# xmcd CD database file
#
# Track frame offsets:
#	150
#	24562
#	45957
#	63532
#	91587
#	116389
#	149119
#	163069
#
# Disc length: 2521 seconds
#
# Revision: 0
# Processed by: cddbd v1.5.1PL0 Copyright (c) Steve Scherf et al.
# Submitted via: CDex 1.51
#
DISCID=6409d708
DTITLE=Lee Konitz - Lee Konitz with Warne Marsh
DYEAR=1956
DGENRE=Jazz
TTITLE0=Topsy
TTITLE1=There will Never be another You
TTITLE2=Can't Get Started
TTITLE3=Donna Lee
TTITLE4=Two Not One
TTITLE5=Don't Squawk
TTITLE6=Ronnie's Line
TTITLE7=Background Music
EXTD=YEAR: 1956
EXTT0=
EXTT1=
EXTT2=
EXTT3=
EXTT4=
EXTT5=
EXTT6=
EXTT7=
PLAYORDER=
